<svg xmlns="http://www.w3.org/2000/svg" version="1.1" xmlns:xlink="http://www.w3.org/1999/xlink" xmlns:svgjs="http://svgjs.dev/svgjs" width="1440" height="1000" preserveAspectRatio="none" viewBox="0 0 1440 1000"><g mask="url(&quot;#SvgjsMask1004&quot;)" fill="none"><rect width="1440" height="1000" x="0" y="0" fill="#0e2a47"></rect><path d="M893.26 720.67L921.43 720.67L921.43 748.84L893.26 748.84z" fill="#d3b714"></path><path d="M132.35 452.45L205.05 452.45L205.05 531.72L132.35 531.72z" stroke="#d3b714"></path><path d="M1230.97 406.54L1299.36 406.54L1299.36 479.16L1230.97 479.16z" fill="#d3b714"></path><path d="M116.58 146.88a3.07 3.07 0 1 0-2.65-5.54z" fill="#037b0b"></path><path d="M633.64 245.76a99.07 99.07 0 1 0 63.09 187.82z" stroke="#037b0b"></path><path d="M185.53 331.04 a26.51 26.51 0 1 0 53.02 0 a26.51 26.51 0 1 0 -53.02 0z" fill="#d3b714"></path><path d="M787.4 156.23L869.22 156.23L869.22 238.05L787.4 238.05z" stroke="#037b0b"></path><path d="M352.74 646.65L445.15 646.65L445.15 667.61L352.74 667.61z" stroke="#e73635"></path><path d="M335.07 429.38L335.87 429.38L335.87 456.77L335.07 456.77z" stroke="#d3b714"></path><path d="M1289.7 249.89 a52.9 52.9 0 1 0 105.8 0 a52.9 52.9 0 1 0 -105.8 0z" fill="#e73635"></path><path d="M924.5 149.77L934.82 149.77L934.82 160.09L924.5 160.09z" stroke="#d3b714"></path><path d="M448.38 111.53L475.25 111.53L475.25 138.4L448.38 138.4z" fill="#037b0b"></path><path d="M1221.91 216.05L1259.89 216.05L1259.89 217.74L1221.91 217.74z" stroke="#037b0b"></path><path d="M680.19 612.47L759.66 612.47L759.66 650.35L680.19 650.35z" fill="#d3b714"></path><path d="M1118.11 530.18L1125.29 530.18L1125.29 537.36L1118.11 537.36z" fill="#e73635"></path><path d="M240.89 387.26L328.1 387.26L328.1 474.47L240.89 474.47z" fill="#d3b714"></path><path d="M515.7 966.79a67.16 67.16 0 1 0 132.14 24.06z" stroke="#d3b714"></path><path d="M1017.93 669.04L1045.22 669.04L1045.22 696.33L1017.93 696.33z" fill="#037b0b"></path></g><defs><mask id="SvgjsMask1004"><rect width="1440" height="1000" fill="#ffffff"></rect></mask></defs></svg>